<?xml version="1.0" encoding="UTF-8"?>
<svg width="117px" height="155px" viewBox="0 0 117 155" version="1.1" xmlns="http://www.w3.org/2000/svg" xmlns:xlink="http://www.w3.org/1999/xlink">
    <title>Cup 1</title>
    <g id="Page-1" stroke="none" stroke-width="1" fill="none" fill-rule="evenodd">
        <g id="222629-P28RX6-279" transform="translate(-47.000000, -28.000000)">
            <g id="Cup-1" transform="translate(47.562000, 28.625000)">
                <path d="M38.594,154.101 C59.852,154.101 77.189,150.303 77.189,145.647 C77.189,140.99 59.852,137.193 38.594,137.193 C17.337,137.193 7.10542736e-15,140.99 7.10542736e-15,145.647 C7.10542736e-15,150.303 17.337,154.101 38.594,154.101" id="Fill-67" fill="#A38B5B"></path>
                <path d="M71.112,144.79 C68.616,147.241 60.116,149.047 50.013,149.047 C39.782,149.047 31.196,147.196 28.822,144.698 L28.82,144.698 C12.404,128.57 7.525,111.679 4.076,78.339 L95.956,78.3 C92.507,111.64 87.531,128.662 71.114,144.79 L71.112,144.79" id="Fill-68" fill="#E6E6E6"></path>
                <path d="M93.641,96.782 C93.226,98.91 91.164,100.298 89.036,99.883 C86.909,99.468 85.52,97.406 85.936,95.278 C87.173,89.009 91.939,84.966 97.356,83.765 C99.614,83.265 101.977,83.256 104.234,83.785 C106.531,84.324 108.741,85.415 110.648,87.107 C115.224,91.166 117.922,98.581 115.319,109.846 C112.913,120.256 107.165,125.676 101.236,127.329 C98.793,128.01 96.32,128.047 94.013,127.524 C91.68,126.995 89.519,125.894 87.725,124.307 C83.698,120.744 81.55,114.831 83.59,107.625 C84.174,105.54 86.34,104.323 88.425,104.908 C90.51,105.493 91.727,107.658 91.142,109.744 C90.025,113.69 90.989,116.741 92.914,118.444 C93.711,119.149 94.68,119.641 95.732,119.879 C96.809,120.124 97.979,120.102 99.148,119.776 C102.588,118.818 106.024,115.24 107.674,108.097 C109.517,100.124 108.092,95.306 105.46,92.971 C104.583,92.193 103.546,91.685 102.453,91.429 C101.32,91.164 100.149,91.165 99.044,91.41 C96.473,91.98 94.217,93.868 93.641,96.782" id="Fill-69" fill="#FFFFFF"></path>
                <path d="M88.013,124.555 C87.916,124.474 87.82,124.391 87.725,124.307 C83.698,120.744 81.55,114.831 83.59,107.625 C84.174,105.54 86.34,104.323 88.425,104.908 C90.51,105.493 91.727,107.658 91.142,109.744 C90.401,112.361 90.576,114.584 91.339,116.282 C90.357,119.194 89.256,121.939 88.013,124.555 Z M93.641,96.782 C93.226,98.91 91.164,100.298 89.036,99.883 C86.909,99.467 85.52,97.406 85.936,95.278 C87.173,89.009 91.938,84.966 97.356,83.765 C97.5,83.733 97.645,83.703 97.79,83.675 C97.436,86.718 97.062,89.619 96.66,92.388 C95.172,93.331 94.028,94.825 93.641,96.782 L93.641,96.782 Z" id="Fill-70" fill="#E6E6E6"></path>
                <path d="M71.112,144.79 C68.972,146.892 62.416,148.519 54.22,148.94 C45.907,148.512 39.282,146.844 37.242,144.698 L37.241,144.698 C20.825,128.57 15.946,111.679 12.497,78.339 L95.956,78.303 C92.507,111.642 87.53,128.663 71.114,144.79 L71.112,144.79" id="Fill-71" fill="#FFFFFF"></path>
                <path d="M50.013,89.869 C75.342,89.869 96,84.432 96,77.767 C96,71.101 75.342,65.665 50.013,65.665 C24.684,65.665 4.026,71.101 4.026,77.767 C4.026,84.432 24.684,89.869 50.013,89.869" id="Fill-72" fill="#FFFFFF"></path>
                <path d="M50.013,87.001 C73.194,87.001 92.101,82.853 92.101,77.767 C92.101,72.681 73.194,68.533 50.013,68.533 C26.832,68.533 7.925,72.681 7.925,77.767 C7.925,82.853 26.832,87.001 50.013,87.001" id="Fill-73" fill="#E6E6E6"></path>
                <path d="M86.038,82.544 C78.663,85.215 65.289,87.001 50.013,87.001 C34.737,87.001 21.362,85.215 13.987,82.544 C21.362,79.872 34.737,78.086 50.013,78.086 C65.289,78.086 78.663,79.872 86.038,82.544" id="Fill-74" fill="#5C3D30"></path>
                <path d="M86.038,82.544 C83.713,83.386 80.79,84.14 77.4,84.778 C76.462,83.216 75.25,82.058 74.102,81.484 C70.199,79.532 56.686,79.382 52.632,80.283 C48.579,81.184 41.823,82.085 38.369,81.484 C34.917,80.883 25.308,81.935 21.769,84.613 C18.742,84.011 16.114,83.314 13.987,82.544 C21.362,79.872 34.737,78.086 50.013,78.086 C65.288,78.086 78.663,79.872 86.038,82.544" id="Fill-75" fill="#A17E6F"></path>
                <path d="M80.047,82.828 C81.261,82.828 82.251,82.568 82.251,82.248 C82.251,81.929 81.261,81.669 80.047,81.669 C78.833,81.669 77.843,81.929 77.843,82.248 C77.843,82.568 78.833,82.828 80.047,82.828" id="Fill-76" fill="#5C3D30"></path>
                <path d="M50.985,79.524 C51.793,79.524 52.451,79.351 52.451,79.139 C52.451,78.926 51.793,78.753 50.985,78.753 C50.178,78.753 49.519,78.926 49.519,79.139 C49.519,79.351 50.178,79.524 50.985,79.524" id="Fill-77" fill="#5C3D30"></path>
                <path d="M78.349,83.994 C79.157,83.994 79.815,83.821 79.815,83.609 C79.815,83.396 79.157,83.223 78.349,83.223 C77.542,83.223 76.883,83.396 76.883,83.609 C76.883,83.821 77.542,83.994 78.349,83.994" id="Fill-78" fill="#5C3D30"></path>
                <path d="M45.985,80.684 C47.199,80.684 48.189,80.423 48.189,80.104 C48.189,79.784 47.199,79.524 45.985,79.524 C44.772,79.524 43.782,79.784 43.782,80.104 C43.782,80.423 44.772,80.684 45.985,80.684" id="Fill-79" fill="#5C3D30"></path>
                <path d="M21.188,83.181 C21.995,83.181 22.654,83.007 22.654,82.795 C22.654,82.582 21.995,82.409 21.188,82.409 C20.381,82.409 19.722,82.582 19.722,82.795 C19.722,83.007 20.381,83.181 21.188,83.181" id="Fill-80" fill="#5C3D30"></path>
                <path d="M76.572,45.706 C88.536,39.85 86.844,23.421 71.623,22.094 C53.918,20.55 44.646,44.807 51.944,64.393 C53.849,41.537 62.264,30.986 72.193,31.102 C80.617,31.2 77.848,42.974 76.572,45.706" id="Fill-81" fill="#DFCEAD"></path>
                <path d="M46.907,57.873 C35.672,31.813 64.999,17.027 59.302,0 C53.218,17.607 22.767,30.184 46.907,57.873" id="Fill-82" fill="#DFCEAD"></path>
            </g>
        </g>
    </g>
</svg>