<?xml version="1.0" encoding="UTF-8"?>
<svg width="112px" height="127px" viewBox="0 0 112 127" version="1.1" xmlns="http://www.w3.org/2000/svg" xmlns:xlink="http://www.w3.org/1999/xlink">
    <title>Cup 6</title>
    <g id="Page-1" stroke="none" stroke-width="1" fill="none" fill-rule="evenodd">
        <g id="222629-P28RX6-279" transform="translate(-22.000000, -331.000000)">
            <g id="Cup-6" transform="translate(22.902000, 331.043000)">
                <path d="M48.246,126.197 C74.818,126.197 96.491,121.45 96.491,115.629 C96.491,109.809 74.818,105.061 48.246,105.061 C21.673,105.061 -7.10542736e-15,109.809 -7.10542736e-15,115.629 C-7.10542736e-15,121.45 21.673,126.197 48.246,126.197" id="Fill-154" fill="#A38B5B"></path>
                <path d="M110.797,79.778 C110.797,92.111 107.567,109.646 95.068,115.178 C81.115,121.354 59.962,121.044 46.89,115.179 C34.419,109.584 31.16,92.138 31.16,79.778 L31.16,59.111 L110.797,59.111 L110.797,79.778" id="Fill-155" fill="#E6B3B3"></path>
                <path d="M110.797,79.778 C110.797,92.111 107.864,109.646 96.512,115.178 C83.841,121.354 64.63,121.044 52.758,115.179 C41.433,109.584 38.473,92.138 38.473,79.778 L38.473,59.111 L110.797,59.111 L110.797,79.778" id="Fill-156" fill="#FFD9D9"></path>
                <path d="M70.979,67.846 C92.91,67.846 110.797,63.922 110.797,59.11 C110.797,54.299 92.91,50.374 70.979,50.374 C49.047,50.374 31.16,54.299 31.16,59.11 C31.16,63.922 49.047,67.846 70.979,67.846" id="Fill-157" fill="#FFD9D9"></path>
                <path d="M70.979,65.815 C90.942,65.815 107.224,62.803 107.224,59.11 C107.224,55.418 90.942,52.406 70.979,52.406 C51.015,52.406 34.733,55.418 34.733,59.11 C34.733,62.803 51.015,65.815 70.979,65.815" id="Fill-158" fill="#E6B3B3"></path>
                <path d="M105.285,61.279 C100.412,63.917 86.894,65.815 70.978,65.815 C55.063,65.815 41.544,63.917 36.671,61.279 C41.544,58.64 55.063,56.743 70.978,56.743 C86.894,56.743 100.412,58.64 105.285,61.279" id="Fill-159" fill="#5C3D30"></path>
                <path d="M72.499,63.748 C71.681,63.544 71.024,63.437 70.592,63.475 C68.363,63.648 66.966,64.485 66.413,65.762 C67.908,65.797 69.432,65.815 70.978,65.815 C71.488,65.815 71.995,65.813 72.499,65.809 L72.499,63.748 Z M72.499,58.475 C70.736,58.164 68.891,57.909 66.915,58.074 C62.778,58.418 60.709,59.452 55.998,60.487 C51.286,61.521 44.621,60.717 47.839,62.555 C48.71,63.053 49.43,63.762 50.094,64.59 C43.916,63.783 39.163,62.628 36.671,61.279 C41.544,58.64 55.063,56.743 70.978,56.743 C71.488,56.743 71.995,56.745 72.499,56.749 L72.499,58.475 Z M72.499,65.809 C74.578,65.793 76.612,65.745 78.586,65.667 C76.249,64.892 74.074,64.14 72.499,63.748 L72.499,65.809 Z M105.285,61.279 C103.022,62.505 98.892,63.57 93.524,64.36 C93.776,63.116 94.829,63.184 95.582,62.546 C96.335,61.908 92.606,60.712 88.633,60.142 C84.66,59.573 81.508,59.223 78.061,59.223 C76.26,59.223 74.428,58.815 72.499,58.475 L72.499,56.749 C87.751,56.865 100.568,58.725 105.285,61.279 L105.285,61.279 Z" id="Fill-160" fill="#A17E6F"></path>
                <path d="M98.962,61.893 C100.442,61.893 101.648,61.576 101.648,61.186 C101.648,60.797 100.442,60.479 98.962,60.479 C97.482,60.479 96.276,60.797 96.276,61.186 C96.276,61.576 97.482,61.893 98.962,61.893" id="Fill-161" fill="#5C3D30"></path>
                <path d="M95.315,60.123 C96.143,60.123 96.817,59.946 96.817,59.728 C96.817,59.51 96.143,59.333 95.315,59.333 C94.488,59.333 93.814,59.51 93.814,59.728 C93.814,59.946 94.488,60.123 95.315,60.123" id="Fill-162" fill="#5C3D30"></path>
                <path d="M47.462,60.314 C48.289,60.314 48.964,60.136 48.964,59.919 C48.964,59.701 48.289,59.524 47.462,59.524 C46.635,59.524 45.96,59.701 45.96,59.919 C45.96,60.136 46.635,60.314 47.462,60.314" id="Fill-163" fill="#5C3D30"></path>
                <path d="M44.12,61.934 C45.47,61.934 46.571,61.645 46.571,61.289 C46.571,60.934 45.47,60.645 44.12,60.645 C42.771,60.645 41.67,60.934 41.67,61.289 C41.67,61.645 42.771,61.934 44.12,61.934" id="Fill-164" fill="#5C3D30"></path>
                <path d="M75.978,46.745 C63.099,20.987 103.152,17.408 98.475,0 C116.67,31.348 71.681,25.736 75.978,46.745" id="Fill-165" fill="#DFCEAD"></path>
                <path d="M74.727,8.112 C76.551,5.521 81.646,5.714 83.568,9.792 C84.924,12.67 83.294,15.347 79.564,20.824 C83.562,16.456 90.113,13.941 87.798,8.657 C85.198,2.721 77.019,2.364 74.727,8.112" id="Fill-166" fill="#DFCEAD"></path>
            </g>
        </g>
    </g>
</svg>