<?xml version="1.0" encoding="UTF-8"?>
<svg width="126px" height="135px" viewBox="0 0 126 135" version="1.1" xmlns="http://www.w3.org/2000/svg" xmlns:xlink="http://www.w3.org/1999/xlink">
    <title>Cup 4</title>
    <g id="Page-1" stroke="none" stroke-width="1" fill="none" fill-rule="evenodd">
        <g id="222629-P28RX6-279" transform="translate(-22.000000, -192.000000)">
            <g id="Cup-4" transform="translate(22.314000, 192.298000)">
                <path d="M55.376,133.713 C85.876,133.713 110.751,128.264 110.751,121.583 C110.751,114.902 85.876,109.453 55.376,109.453 C24.876,109.453 0,114.902 0,121.583 C0,128.264 24.876,133.713 55.376,133.713" id="Fill-83" fill="#A38B5B"></path>
                <path d="M71.566,109.929 C100.187,109.929 124.547,112.653 124.222,118.923 C124.087,121.528 122.65,123.5 121.276,124.521 C114.944,129.23 95.084,132.668 71.566,132.668 C51.288,132.668 33.731,130.112 25.218,126.389 C21.717,124.858 18.797,122.337 18.91,118.923 C19.117,112.648 42.946,109.929 71.566,109.929" id="Fill-84" fill="#F0F0BD"></path>
                <path d="M71.566,107.37 C100.647,107.37 124.222,112.543 124.222,118.923 C124.222,125.303 100.647,130.476 71.566,130.476 C42.485,130.476 18.91,125.303 18.91,118.923 C18.91,112.543 42.485,107.37 71.566,107.37" id="Fill-85" fill="#FFFFE8"></path>
                <path d="M71.566,113.101 C85.68,113.101 97.121,115.612 97.121,118.708 C97.121,121.804 85.68,124.314 71.566,124.314 C57.453,124.314 46.011,121.804 46.011,118.708 C46.011,115.612 57.453,113.101 71.566,113.101" id="Fill-86" fill="#E0E0AC"></path>
                <path d="M43.364,73.207 L99.666,73.207 C99.722,73.207 99.768,73.253 99.768,73.309 L99.768,106.784 C99.768,113.135 95.09,118.447 89.011,119.447 C84.764,120.512 78.524,121.185 71.566,121.185 C64.609,121.185 58.368,120.512 54.121,119.447 C48.041,118.447 43.364,113.135 43.364,106.784 L43.364,73.207" id="Fill-87" fill="#F0F0BD"></path>
                <path d="M109.181,108.633 C101.346,108.633 96.316,104.217 94.102,98.565 C93.267,96.434 92.849,94.141 92.849,91.865 C92.849,89.588 93.267,87.295 94.102,85.164 C96.316,79.512 101.347,75.097 109.181,75.097 L109.181,82.015 C104.658,82.015 101.779,84.499 100.534,87.678 C100.023,88.981 99.768,90.415 99.768,91.865 C99.768,93.314 100.023,94.749 100.534,96.052 C101.779,99.23 104.658,101.714 109.181,101.714 L109.181,108.633 Z M109.181,75.097 C117.015,75.097 122.045,79.513 124.26,85.165 C125.094,87.296 125.512,89.589 125.512,91.865 C125.512,94.141 125.094,96.434 124.26,98.565 C122.045,104.217 117.015,108.633 109.181,108.633 L109.181,101.714 C113.703,101.714 116.582,99.231 117.827,96.052 C118.338,94.749 118.593,93.315 118.593,91.865 C118.593,90.415 118.338,88.981 117.827,87.678 C116.582,84.499 113.704,82.015 109.181,82.015 L109.181,75.097 L109.181,75.097 Z" id="Fill-88" fill="#FFFFCC"></path>
                <path d="M101.195,106.753 C97.805,104.941 95.439,101.979 94.102,98.565 C93.267,96.434 92.849,94.141 92.849,91.865 C92.849,89.588 93.267,87.295 94.102,85.164 C95.441,81.745 97.812,78.779 101.209,76.969 L101.209,86.293 C100.947,86.735 100.721,87.198 100.534,87.678 C100.023,88.981 99.768,90.415 99.768,91.865 C99.768,93.314 100.023,94.749 100.534,96.052 C100.721,96.531 100.947,96.994 101.209,97.436 L101.209,106.096 C101.209,106.317 101.204,106.536 101.195,106.753" id="Fill-89" fill="#F0F0BD"></path>
                <path d="M99.768,73.194 L99.768,106.784 C99.768,113.84 94.918,118.388 87.982,119.689 C77.801,121.597 66.663,121.803 56.53,119.969 C55.698,119.818 53.339,117.758 52.81,117.146 C50.868,114.895 49.689,111.969 49.689,108.781 L49.689,75.204 L99.768,73.194" id="Fill-90" fill="#FFFFCC"></path>
                <path d="M71.566,67.006 C87.142,67.006 99.768,69.777 99.768,73.194 C99.768,76.611 87.142,79.381 71.566,79.381 C55.991,79.381 43.364,76.611 43.364,73.194 C43.364,69.777 55.991,67.006 71.566,67.006" id="Fill-91" fill="#FFFFCC"></path>
                <path d="M71.566,69.056 C84.72,69.056 95.384,70.909 95.384,73.194 C95.384,75.479 84.72,77.332 71.566,77.332 C58.412,77.332 47.748,75.479 47.748,73.194 C47.748,70.909 58.412,69.056 71.566,69.056" id="Fill-92" fill="#F0F0BD"></path>
                <path d="M92.584,75.142 C88.574,76.445 80.667,77.332 71.566,77.332 C62.466,77.332 54.559,76.445 50.549,75.142 C54.559,73.839 62.466,72.952 71.566,72.952 C80.667,72.952 88.574,73.839 92.584,75.142" id="Fill-93" fill="#5C3D30"></path>
                <path d="M92.584,75.142 C91.302,75.558 89.621,75.932 87.631,76.248 C88.638,75.734 89.124,75.298 88.835,75.032 C87.852,74.132 78.602,74.541 76.637,74.132 C74.673,73.723 67.469,74.132 65.176,74.705 C63.706,75.073 60.923,74.632 59.591,73.512 C63.109,73.156 67.2,72.952 71.566,72.952 C80.666,72.952 88.574,73.839 92.584,75.142" id="Fill-94" fill="#A17E6F"></path>
                <path d="M63.142,74.551 C63.546,74.551 63.875,74.464 63.875,74.357 C63.875,74.251 63.546,74.165 63.142,74.165 C62.739,74.165 62.409,74.251 62.409,74.357 C62.409,74.464 62.739,74.551 63.142,74.551" id="Fill-95" fill="#5C3D30"></path>
                <path d="M64.908,74.17 C65.56,74.17 66.091,74.03 66.091,73.858 C66.091,73.687 65.56,73.547 64.908,73.547 C64.256,73.547 63.724,73.687 63.724,73.858 C63.724,74.03 64.256,74.17 64.908,74.17" id="Fill-96" fill="#5C3D30"></path>
                <path d="M79.004,74.039 C79.407,74.039 79.736,73.952 79.736,73.846 C79.736,73.74 79.407,73.653 79.004,73.653 C78.6,73.653 78.27,73.74 78.27,73.846 C78.27,73.952 78.6,74.039 79.004,74.039" id="Fill-97" fill="#5C3D30"></path>
                <path d="M51.643,47.186 C49.626,43.882 51.861,38.29 57.367,38.118 C61.252,37.996 66.475,39.765 69.749,47.029 C68.797,39.688 65.252,32.931 58.203,32.9579194 C50.285,32.989 46.313,41.824 51.643,47.186" id="Fill-98" fill="#DFCEAD"></path>
                <path d="M70.477,61.695 C96.595,36.285 57.032,30.603 70.477,0 C44.685,28.012 84.979,34.02 70.477,61.695" id="Fill-99" fill="#DFCEAD"></path>
            </g>
        </g>
    </g>
</svg>