<?xml version="1.0" encoding="UTF-8"?>
<svg width="96px" height="182px" viewBox="0 0 96 182" version="1.1" xmlns="http://www.w3.org/2000/svg" xmlns:xlink="http://www.w3.org/1999/xlink">
    <title>Cup 2</title>
    <g id="Page-1" stroke="none" stroke-width="1" fill="none" fill-rule="evenodd">
        <g id="222629-P28RX6-279" transform="translate(-199.000000, -18.000000)">
            <g id="Cup-2" transform="translate(199.140000, 18.766000)">
                <path d="M44.821,181.105 C69.507,181.105 89.641,176.695 89.641,171.287 C89.641,165.88 69.507,161.47 44.821,161.47 C20.135,161.47 2.84217094e-14,165.88 2.84217094e-14,171.287 C2.84217094e-14,176.695 20.135,181.105 44.821,181.105" id="Fill-100" fill="#A38B5B"></path>
                <path d="M85.245,168.556 L85.245,168.559 L85.244,168.566 C84.804,172.951 71.159,176.47 54.39,176.47 C37.343,176.47 23.524,172.833 23.524,168.347 L16.177,75.703 L92.601,75.703 L85.245,168.556" id="Fill-101" fill="#DEC7ED"></path>
                <path d="M85.245,168.556 L85.245,168.559 L85.244,168.566 C84.804,172.951 71.159,176.47 54.39,176.47 C46.249,176.47 38.846,175.641 33.331,174.285 C33.305,174.147 33.291,174.008 33.291,173.868 L25.945,81.224 L92.164,81.224 L85.245,168.556" id="Fill-102" fill="#F0D9FF"></path>
                <path d="M54.39,65.301 C70.668,65.301 84.693,67.839 91.069,71.493 L94.732,71.493 L94.732,75.918 C94.732,81.782 76.671,86.535 54.39,86.535 C32.109,86.535 14.047,81.782 14.047,75.918 L14.047,71.493 L17.71,71.493 C24.086,67.839 38.111,65.301 54.39,65.301" id="Fill-103" fill="#5C3D30"></path>
                <path d="M54.39,82.109 C76.61,82.109 94.732,77.34 94.732,71.492 C94.732,65.645 76.61,60.876 54.39,60.876 C32.17,60.876 14.047,65.645 14.047,71.492 C14.047,77.34 32.17,82.109 54.39,82.109" id="Fill-104" fill="#8C6757"></path>
                <path d="M54.39,57.965 C68.348,57.965 80.374,60.141 85.842,63.274 L88.983,63.274 L88.983,67.933 C88.983,72.961 73.495,77.037 54.39,77.037 C35.284,77.037 19.796,72.961 19.796,67.933 L19.796,63.274 L22.938,63.274 C28.405,60.141 40.431,57.965 54.39,57.965" id="Fill-105" fill="#5C3D30"></path>
                <path d="M54.39,72.377 C73.443,72.377 88.983,68.287 88.983,63.273 C88.983,58.259 73.443,54.17 54.39,54.17 C35.337,54.17 19.796,58.259 19.796,63.273 C19.796,68.287 35.337,72.377 54.39,72.377" id="Fill-106" fill="#8C6757"></path>
                <path d="M75.004,64.47 C77.508,64.47 79.551,63.933 79.551,63.273 C79.551,62.614 77.508,62.077 75.004,62.077 C72.5,62.077 70.458,62.614 70.458,63.273 C70.458,63.933 72.5,64.47 75.004,64.47" id="Fill-107" fill="#5C3D30"></path>
                <path d="M87.993,140.2 L87.993,140.202 L87.992,140.21 C87.513,144.986 72.652,148.819 54.39,148.819 C35.824,148.819 20.774,144.858 20.774,139.973 L18.008,105.083 C24.527,108.643 38.368,111.099 54.39,111.099 C70.417,111.099 84.26,108.64 90.776,105.079 L87.993,140.2" id="Fill-108" fill="#8C6757"></path>
                <path d="M87.993,140.2 L87.993,140.202 L87.992,140.21 C87.513,144.986 72.652,148.819 54.389,148.819 C45.353,148.819 37.15,147.88 31.109,146.354 L28.111,108.54 C35.172,110.135 44.353,111.099 54.389,111.099 C70.417,111.099 84.26,108.64 90.776,105.079 L87.993,140.2" id="Fill-109" fill="#A17E6F"></path>
                <path d="M76.603,54.27 C63.635,29.083 90.498,27.239 78.53,0 C101.487,24.932 70.976,28.566 76.603,54.27" id="Fill-110" fill="#DFCEAD"></path>
                <path d="M91.006,13.584 C95.036,30.652 77.433,34.546 79.854,52.929 C85.23,35.215 102.654,33.032 91.006,13.584" id="Fill-111" fill="#DFCEAD"></path>
            </g>
        </g>
    </g>
</svg>