<?xml version="1.0" encoding="UTF-8"?>
<svg width="124px" height="128px" viewBox="0 0 124 128" version="1.1" xmlns="http://www.w3.org/2000/svg" xmlns:xlink="http://www.w3.org/1999/xlink">
    <title>Cup 7</title>
    <g id="Page-1" stroke="none" stroke-width="1" fill="none" fill-rule="evenodd">
        <g id="222629-P28RX6-279" transform="translate(-181.000000, -328.000000)">
            <g id="Cup-7" transform="translate(181.887000, 328.626837)">
                <path d="M49.889,127.300163 C77.367,127.300163 99.778,122.391163 99.778,116.372163 C99.778,110.353163 77.367,105.444163 49.889,105.444163 C22.411,105.444163 0,110.353163 0,116.372163 C0,122.391163 22.411,127.300163 49.889,127.300163" id="Fill-42" fill="#A38B5B"></path>
                <path d="M68.747,120.814163 C79.484,120.814163 88.69,119.054163 92.582,116.550163 C94.195,115.631163 95.286,113.873163 95.286,111.854163 C95.286,108.886163 92.926,106.479163 90.017,106.479163 C88.273,106.479163 86.728,107.344163 85.768,108.675163 C81.224,107.604163 75.268,106.954163 68.747,106.954163 C62.274,106.954163 56.357,107.594163 51.826,108.650163 C50.866,107.333163 49.328,106.479163 47.595,106.479163 C44.685,106.479163 42.325,108.886163 42.325,111.854163 C42.325,112.863163 42.598,113.808163 43.073,114.615163 C44.432,118.098163 55.407,120.814163 68.747,120.814163" id="Fill-43" fill="#FFFFFF"></path>
                <path d="M95.263,111.348163 C87.288,115.441163 78.282,117.748163 68.747,117.748163 C59.256,117.748163 50.29,115.462163 42.344,111.405163 C42.568,108.647163 44.833,106.479163 47.595,106.479163 C49.328,106.479163 50.866,107.333163 51.826,108.650163 C56.357,107.594163 62.274,106.954163 68.747,106.954163 C75.268,106.954163 81.224,107.604163 85.768,108.675163 C86.728,107.344163 88.273,106.479163 90.017,106.479163 C92.759,106.479163 95.012,108.617163 95.263,111.348163" id="Fill-44" fill="#E6E6E6"></path>
                <path d="M122.92,59.9151627 C122.952,60.6781627 122.972,61.4431627 122.972,62.2131627 C122.972,92.1581627 98.697,116.434163 68.752,116.434163 C38.806,116.434163 14.53,92.1581627 14.53,62.2131627 C14.53,61.4431627 14.551,60.6781627 14.583,59.9151627 L122.92,59.9151627" id="Fill-45" fill="#E6E6E6"></path>
                <path d="M122.923,59.9151627 C122.953,60.6781627 122.972,61.4431627 122.972,62.2131627 C122.972,92.1581627 100.037,116.434163 71.746,116.434163 C43.455,116.434163 20.52,92.1581627 20.52,62.2131627 C20.52,61.4431627 20.539,60.6781627 20.569,59.9151627 L122.923,59.9151627" id="Fill-46" fill="#FFFFFF"></path>
                <path d="M68.752,71.6711627 C98.591,71.6711627 122.928,66.3321627 122.928,59.7851627 C122.928,53.2381627 98.591,47.8991627 68.752,47.8991627 C38.912,47.8991627 14.575,53.2381627 14.575,59.7851627 C14.575,66.3321627 38.912,71.6711627 68.752,71.6711627" id="Fill-47" fill="#FFFFFF"></path>
                <path d="M68.752,69.3271627 C96.418,69.3271627 118.983,65.0411627 118.983,59.7851627 C118.983,54.5291627 96.418,50.2431627 68.752,50.2431627 C41.085,50.2431627 18.52,54.5291627 18.52,59.7851627 C18.52,65.0411627 41.085,69.3271627 68.752,69.3271627" id="Fill-48" fill="#E6E6E6"></path>
                <path d="M117.008,62.4421627 C110.951,66.4191627 91.64,69.3271627 68.752,69.3271627 C45.863,69.3271627 26.552,66.4191627 20.495,62.4421627 C26.552,58.4651627 45.863,55.5571627 68.752,55.5571627 C91.64,55.5571627 110.951,58.4651627 117.008,62.4421627" id="Fill-49" fill="#A17E6F"></path>
                <path d="M94.569,60.5861627 C95.922,60.5861627 97.026,60.2961627 97.026,59.9401627 C97.026,59.5831627 95.922,59.2931627 94.569,59.2931627 C93.216,59.2931627 92.112,59.5831627 92.112,59.9401627 C92.112,60.2961627 93.216,60.5861627 94.569,60.5861627" id="Fill-50" fill="#5C3D30"></path>
                <path d="M91.233,59.2821627 C92.232,59.2821627 93.046,59.0681627 93.046,58.8051627 C93.046,58.5421627 92.232,58.3281627 91.233,58.3281627 C90.234,58.3281627 89.42,58.5421627 89.42,58.8051627 C89.42,59.0681627 90.234,59.2821627 91.233,59.2821627" id="Fill-51" fill="#5C3D30"></path>
                <path d="M90.071,60.3661627 C90.905,60.3661627 91.584,60.1871627 91.584,59.9681627 C91.584,59.7491627 90.905,59.5701627 90.071,59.5701627 C89.237,59.5701627 88.557,59.7491627 88.557,59.9681627 C88.557,60.1871627 89.237,60.3661627 90.071,60.3661627" id="Fill-52" fill="#5C3D30"></path>
                <path d="M87.066,57.6661627 C87.9,57.6661627 88.58,57.4871627 88.58,57.2681627 C88.58,57.0481627 87.9,56.8701627 87.066,56.8701627 C86.233,56.8701627 85.553,57.0481627 85.553,57.2681627 C85.553,57.4871627 86.233,57.6661627 87.066,57.6661627" id="Fill-53" fill="#5C3D30"></path>
                <path d="M83.606,58.3921627 C84.604,58.3921627 85.419,58.1781627 85.419,57.9151627 C85.419,57.6531627 84.604,57.4381627 83.606,57.4381627 C82.607,57.4381627 81.793,57.6531627 81.793,57.9151627 C81.793,58.1781627 82.607,58.3921627 83.606,58.3921627" id="Fill-54" fill="#5C3D30"></path>
                <path d="M108.446,61.3201627 C109.279,61.3201627 109.959,61.1411627 109.959,60.9221627 C109.959,60.7021627 109.279,60.5231627 108.446,60.5231627 C107.612,60.5231627 106.932,60.7021627 106.932,60.9221627 C106.932,61.1411627 107.612,61.3201627 108.446,61.3201627" id="Fill-55" fill="#5C3D30"></path>
                <path d="M111.609,62.6841627 C112.962,62.6841627 114.066,62.3941627 114.066,62.0381627 C114.066,61.6811627 112.962,61.3911627 111.609,61.3911627 C110.255,61.3911627 109.152,61.6811627 109.152,62.0381627 C109.152,62.3941627 110.255,62.6841627 111.609,62.6841627" id="Fill-56" fill="#5C3D30"></path>
                <path d="M106.493,62.7791627 C107.491,62.7791627 108.306,62.5651627 108.306,62.3021627 C108.306,62.0391627 107.491,61.8251627 106.493,61.8251627 C105.494,61.8251627 104.68,62.0391627 104.68,62.3021627 C104.68,62.5651627 105.494,62.7791627 106.493,62.7791627" id="Fill-57" fill="#5C3D30"></path>
                <path d="M108.891,64.3081627 C109.724,64.3081627 110.404,64.1301627 110.404,63.9101627 C110.404,63.6911627 109.724,63.5121627 108.891,63.5121627 C108.057,63.5121627 107.377,63.6911627 107.377,63.9101627 C107.377,64.1301627 108.057,64.3081627 108.891,64.3081627" id="Fill-58" fill="#5C3D30"></path>
                <path d="M80.978,69.0421627 C77.064,69.2281627 72.969,69.3271627 68.752,69.3271627 C63.752,69.3271627 58.923,69.1881627 54.365,68.9301627 C53.07,67.6151627 50.832,66.5801627 47.03,66.2831627 C40.107,65.7421627 24.755,66.7361627 27.409,62.4251627 C28.449,60.7331627 32.384,58.9221627 43.613,60.2351627 C47.898,60.7351627 49.121,59.3701627 51.681,59.0861627 C54.242,58.8011627 57.758,60.1611627 62.452,59.5921627 C67.146,59.0221627 69.543,57.6861627 71.961,57.6861627 C82.376,57.7941627 83.109,61.2001627 89.622,62.2941627 C92.776,62.8241627 99.397,62.4791627 96.741,64.1881627 C92.441,66.9551627 85.114,65.9331627 80.978,69.0421627" id="Fill-59" fill="#5C3D30"></path>
                <path d="M65.111,57.7741627 C65.945,57.7741627 66.625,57.5951627 66.625,57.3761627 C66.625,57.1571627 65.945,56.9781627 65.111,56.9781627 C64.278,56.9781627 63.598,57.1571627 63.598,57.3761627 C63.598,57.5951627 64.278,57.7741627 65.111,57.7741627" id="Fill-60" fill="#5C3D30"></path>
                <path d="M61.042,59.0721627 C62.395,59.0721627 63.499,58.7821627 63.499,58.4251627 C63.499,58.0691627 62.395,57.7791627 61.042,57.7791627 C59.688,57.7791627 58.585,58.0691627 58.585,58.4251627 C58.585,58.7821627 59.688,59.0721627 61.042,59.0721627" id="Fill-61" fill="#5C3D30"></path>
                <path d="M45.513,59.1171627 C46.347,59.1171627 47.027,58.9381627 47.027,58.7191627 C47.027,58.4991627 46.347,58.3201627 45.513,58.3201627 C44.68,58.3201627 44,58.4991627 44,58.7191627 C44,58.9381627 44.68,59.1171627 45.513,59.1171627" id="Fill-62" fill="#5C3D30"></path>
                <path d="M96.564,66.4261627 C97.408,66.4261627 98.097,66.2451627 98.097,66.0231627 C98.097,65.8011627 97.408,65.6201627 96.564,65.6201627 C95.72,65.6201627 95.032,65.8011627 95.032,66.0231627 C95.032,66.2451627 95.72,66.4261627 96.564,66.4261627" id="Fill-63" fill="#5C3D30"></path>
                <path d="M72.21,45.6611627 C80.259,29.3361627 61.541,11.8081627 74.427,7.23316268 C81.099,4.86416268 86.695,15.6241627 83.513,19.2361627 C89.634,9.55216268 78.55,-2.65983732 69.906,0.512162684 C51.081,7.41716268 72.081,25.5751627 72.21,45.6611627" id="Fill-64" fill="#DFCEAD"></path>
                <path d="M88.723,30.7791627 C89.433,27.9691627 86.263,24.5491627 82.288,25.6461627 C79.483,26.4201627 78.597,29.1471627 77.02,34.9991627 C77.668,29.6221627 75.509,23.5781627 80.555,22.0351627 C86.223,20.3011627 91.346,25.7631627 88.723,30.7791627" id="Fill-65" fill="#DFCEAD"></path>
                <path d="M49.353,33.7641627 C40.95,33.5221627 37.633,23.6411627 46.032,18.9051627 C55.802,13.3971627 66.595,25.4941627 68.381,38.0711627 C60,26.8831627 53.374,23.6941627 48.992,25.8751627 C44.997,27.8631627 47.906,32.5271627 49.353,33.7641627" id="Fill-66" fill="#DFCEAD"></path>
            </g>
        </g>
    </g>
</svg>