<?xml version="1.0" encoding="UTF-8"?>
<svg width="124px" height="171px" viewBox="0 0 124 171" version="1.1" xmlns="http://www.w3.org/2000/svg" xmlns:xlink="http://www.w3.org/1999/xlink">
    <title>Cup 3</title>
    <g id="Page-1" stroke="none" stroke-width="1" fill="none" fill-rule="evenodd">
        <g id="222629-P28RX6-279" transform="translate(-337.000000, -12.000000)">
            <g id="Cup-3" transform="translate(337.950000, 12.681000)">
                <path d="M52.899,170.045 C82.035,170.045 105.798,164.839 105.798,158.457 C105.798,152.075 82.035,146.87 52.899,146.87 C23.763,146.87 0,152.075 0,158.457 C0,164.839 23.763,170.045 52.899,170.045" id="Fill-26" fill="#A38B5B"></path>
                <path d="M103.546,157.043 C103.546,161.574 86.801,165.249 66.145,165.249 C45.488,165.249 28.743,161.574 28.743,157.043 L28.743,73.158 L103.546,73.158 L103.546,157.043" id="Fill-27" fill="#C5F0F0"></path>
                <path d="M103.546,137.881 C94.085,137.881 88.131,131 85.611,122.195 C84.711,119.046 84.26,115.651 84.26,112.275 C84.26,108.899 84.711,105.504 85.611,102.356 C88.131,93.55 94.085,86.67 103.546,86.67 L103.546,94.84 C98.414,94.841 95.028,99.117 93.462,104.59 C92.775,106.994 92.43,109.626 92.43,112.275 C92.43,114.925 92.775,117.556 93.462,119.961 C95.028,125.434 98.414,129.71 103.546,129.71 L103.546,137.881 Z M103.546,86.67 C113.007,86.67 118.961,93.55 121.48,102.356 C122.381,105.504 122.831,108.899 122.831,112.275 C122.831,115.651 122.381,119.046 121.48,122.195 C118.961,131 113.007,137.881 103.546,137.881 L103.546,129.71 C108.678,129.71 112.063,125.434 113.629,119.961 C114.317,117.556 114.661,114.925 114.661,112.275 C114.661,109.626 114.317,106.994 113.629,104.59 C112.063,99.117 108.678,94.84 103.546,94.84 L103.546,86.67 L103.546,86.67 Z" id="Fill-28" fill="#E5FFFF"></path>
                <path d="M103.546,86.67 C104.364,86.67 105.156,86.723 105.922,86.822 L105.922,95.17 C105.177,94.955 104.385,94.84 103.546,94.84 C98.414,94.84 95.028,99.117 93.462,104.59 C92.775,106.994 92.43,109.626 92.43,112.275 C92.43,114.925 92.775,117.556 93.462,119.961 C95.028,125.434 98.414,129.71 103.546,129.71 C104.385,129.71 105.177,129.596 105.922,129.38 L105.922,137.728 C105.156,137.828 104.364,137.881 103.546,137.881 C94.085,137.881 88.131,131 85.611,122.195 C84.711,119.046 84.26,115.651 84.26,112.275 C84.26,108.899 84.711,105.504 85.611,102.356 C88.131,93.55 94.085,86.67 103.546,86.67" id="Fill-29" fill="#E6E6E6"></path>
                <path d="M103.546,157.043 C103.546,161.574 86.801,165.249 66.145,165.249 C57.301,165.249 49.176,164.574 42.774,163.449 C39.572,162.886 40.086,160.05 40.087,156.859 L40.086,73.158 L103.546,73.158 L103.546,157.043" id="Fill-30" fill="#E5FFFF"></path>
                <path d="M66.145,81.364 C86.745,81.364 103.546,77.677 103.546,73.158 C103.546,68.638 86.745,64.952 66.145,64.952 C45.544,64.952 28.743,68.638 28.743,73.158 C28.743,77.677 45.544,81.364 66.145,81.364" id="Fill-31" fill="#E5FFFF"></path>
                <path d="M66.145,78.682 C84.195,78.682 98.917,76.201 98.917,73.158 C98.917,70.115 84.195,67.634 66.145,67.634 C48.094,67.634 33.372,70.115 33.372,73.158 C33.372,76.201 48.094,78.682 66.145,78.682" id="Fill-32" fill="#C5F0F0"></path>
                <path d="M93.689,76.152 C87.853,77.674 77.697,78.682 66.145,78.682 C54.592,78.682 44.436,77.674 38.6,76.152 C44.436,74.63 54.592,73.622 66.145,73.622 C77.697,73.622 87.853,74.63 93.689,76.152" id="Fill-33" fill="#5C3D30"></path>
                <path d="M78.379,78.259 C74.536,78.532 70.319,78.682 65.896,78.682 C54.447,78.682 44.383,77.674 38.6,76.152 C44.383,74.63 54.447,73.622 65.896,73.622 C68.1,73.622 70.253,73.66 72.335,73.731 C75.061,73.849 74.008,74.897 69.36,74.756 C64.704,74.615 55.319,75.461 56.649,76.518 C57.979,77.576 77.125,75.982 78.379,78.259" id="Fill-34" fill="#A17E6F"></path>
                <path d="M56.118,75.401 C57.142,75.401 57.978,75.183 57.978,74.916 C57.978,74.648 57.142,74.431 56.118,74.431 C55.093,74.431 54.257,74.648 54.257,74.916 C54.257,75.183 55.093,75.401 56.118,75.401" id="Fill-35" fill="#5C3D30"></path>
                <path d="M59.85,75.149 C60.531,75.149 61.087,75.004 61.087,74.826 C61.087,74.648 60.531,74.504 59.85,74.504 C59.168,74.504 58.612,74.648 58.612,74.826 C58.612,75.004 59.168,75.149 59.85,75.149" id="Fill-36" fill="#5C3D30"></path>
                <path d="M71.274,78.195 C71.956,78.195 72.511,78.05 72.511,77.873 C72.511,77.695 71.956,77.55 71.274,77.55 C70.593,77.55 70.037,77.695 70.037,77.873 C70.037,78.05 70.593,78.195 71.274,78.195" id="Fill-37" fill="#5C3D30"></path>
                <path d="M47.767,77.019 C48.448,77.019 49.004,76.873 49.004,76.696 C49.004,76.518 48.448,76.373 47.767,76.373 C47.086,76.373 46.529,76.518 46.529,76.696 C46.529,76.873 47.086,77.019 47.767,77.019" id="Fill-38" fill="#5C3D30"></path>
                <path d="M71.169,61.694 C45.05,36.285 84.614,30.603 71.169,0 C96.961,28.012 56.667,34.02 71.169,61.694" id="Fill-39" fill="#DFCEAD"></path>
                <path d="M59.72,30.431 C63.942,21.217 70.405,12.664 63.86,5.268 C56.509,-3.039 42.919,-0.128 40.927,10.046 C39.203,18.848 49.527,24.379 49.527,24.379 C49.527,24.379 43.899,19.28 46.113,12.176 C47.726,6.999 53.584,6.394 57.656,9.158 C62.162,12.217 62.923,19.55 59.72,30.431" id="Fill-40" fill="#DFCEAD"></path>
                <path d="M89.101,48.174 C90.566,44.592 87.471,39.427 82.007,40.133 C78.152,40.63 74.384,43.456 71.2,50.9 C73.066,43.91 73.398,36.266 80.361,35.171 C88.182,33.942 93.51,42.033 89.101,48.174" id="Fill-41" fill="#DFCEAD"></path>
            </g>
        </g>
    </g>
</svg>