<?xml version="1.0" encoding="UTF-8"?>
<svg width="107px" height="120px" viewBox="0 0 107 120" version="1.1" xmlns="http://www.w3.org/2000/svg" xmlns:xlink="http://www.w3.org/1999/xlink">
    <title>Cup 8</title>
    <g id="Page-1" stroke="none" stroke-width="1" fill="none" fill-rule="evenodd">
        <g id="222629-P28RX6-279" transform="translate(-354.000000, -335.000000)">
            <g id="Cup-8" transform="translate(354.222000, 335.659000)">
                <path d="M38.595,119.218 C59.852,119.218 77.19,115.421 77.19,110.764 C77.19,106.108 59.852,102.31 38.595,102.31 C17.338,102.31 0,106.108 0,110.764 C0,115.421 17.338,119.218 38.595,119.218" id="Fill-112" fill="#A38B5B"></path>
                <path d="M53.039,45.324 C44.798,22.178 62.916,22.482 53.039,-5.68434189e-14 C71.986,20.578 51.093,26.61 53.039,45.324" id="Fill-113" fill="#DFCEAD"></path>
                <path d="M73.198,109.925 C73.198,112.771 62.68,115.079 49.706,115.079 C36.733,115.079 26.215,112.771 26.215,109.925 L26.215,74.86 L73.198,74.86 L73.198,109.925" id="Fill-114" fill="#C6E6DA"></path>
                <path d="M26.215,107.479 L26.215,74.86 L73.198,74.86 L73.198,107.479 C67.524,108.931 59.105,109.851 49.706,109.851 C40.307,109.851 31.889,108.931 26.215,107.479" id="Fill-115" fill="#B3D1C6"></path>
                <path d="M80.641,101.275 C80.641,105.024 66.791,108.062 49.706,108.062 C32.622,108.062 18.772,105.024 18.772,101.275 L18.772,55.102 L80.641,55.102 L80.641,101.275" id="Fill-116" fill="#C6E6DA"></path>
                <path d="M90.053,91.557 C82.219,91.557 77.189,87.141 74.974,81.49 C74.14,79.358 73.722,77.065 73.722,74.789 C73.722,72.513 74.14,70.22 74.974,68.089 C77.189,62.437 82.22,58.021 90.053,58.021 L90.053,64.94 C85.531,64.94 82.652,67.423 81.407,70.602 C80.896,71.905 80.641,73.339 80.641,74.789 C80.641,76.239 80.896,77.673 81.407,78.976 C82.652,82.155 85.53,84.639 90.053,84.639 L90.053,91.557 Z M90.053,58.021 C97.887,58.021 102.918,62.437 105.132,68.089 C105.967,70.22 106.385,72.513 106.385,74.789 C106.385,77.066 105.967,79.359 105.132,81.49 C102.918,87.142 97.887,91.557 90.053,91.557 L90.053,84.639 C94.576,84.639 97.455,82.155 98.7,78.976 C99.21,77.673 99.466,76.239 99.466,74.789 C99.466,73.339 99.21,71.905 98.7,70.603 C97.455,67.423 94.576,64.94 90.053,64.94 L90.053,58.021 L90.053,58.021 Z" id="Fill-117" fill="#D9FFF1"></path>
                <path d="M82.579,89.938 C78.915,88.158 76.378,85.073 74.974,81.49 C74.14,79.358 73.722,77.065 73.722,74.789 C73.722,72.513 74.14,70.22 74.974,68.088 C76.378,64.505 78.915,61.42 82.579,59.641 L82.579,68.468 C82.095,69.123 81.704,69.843 81.407,70.602 C80.896,71.905 80.641,73.339 80.641,74.789 C80.641,76.239 80.896,77.673 81.407,78.976 C81.704,79.735 82.095,80.455 82.579,81.11 L82.579,89.938" id="Fill-118" fill="#C6E6DA"></path>
                <path d="M80.641,101.275 C80.641,105.024 66.791,108.062 49.706,108.062 C42.393,108.062 35.672,107.504 30.377,106.574 C27.729,106.109 28.155,103.763 28.155,101.123 L28.155,55.102 L80.641,55.102 L80.641,101.275" id="Fill-119" fill="#D9FFF1"></path>
                <path d="M49.706,48.315 C66.791,48.315 80.641,51.354 80.641,55.102 C80.641,58.85 66.791,61.889 49.706,61.889 C32.622,61.889 18.772,58.85 18.772,55.102 C18.772,51.354 32.622,48.315 49.706,48.315" id="Fill-120" fill="#D9FFF1"></path>
                <path d="M49.706,50.533 C64.547,50.533 76.577,52.578 76.577,55.102 C76.577,57.625 64.547,59.671 49.706,59.671 C34.866,59.671 22.835,57.625 22.835,55.102 C22.835,52.578 34.866,50.533 49.706,50.533" id="Fill-121" fill="#C6E6DA"></path>
                <path d="M72.291,57.578 C67.505,58.837 59.179,59.671 49.706,59.671 C40.234,59.671 31.907,58.837 27.122,57.578 C31.907,56.319 40.234,55.486 49.706,55.486 C59.179,55.486 67.505,56.319 72.291,57.578" id="Fill-122" fill="#5C3D30"></path>
                <path d="M66.289,58.697 C61.722,59.307 55.964,59.671 49.706,59.671 C40.234,59.671 31.907,58.837 27.122,57.578 C31.907,56.319 40.234,55.485 49.706,55.485 C51.002,55.485 52.276,55.501 53.523,55.531 C48.624,56.701 50.174,58.17 52.867,58.088 C55.561,58.007 64.531,56.123 66.289,58.697" id="Fill-123" fill="#A17E6F"></path>
                <path d="M47.658,57.352 C48.505,57.352 49.195,57.17 49.195,56.947 C49.195,56.724 48.505,56.543 47.658,56.543 C46.811,56.543 46.119,56.724 46.119,56.947 C46.119,57.17 46.811,57.352 47.658,57.352" id="Fill-124" fill="#5C3D30"></path>
                <path d="M44.274,56.782 C44.981,56.782 45.558,56.63 45.558,56.444 C45.558,56.258 44.981,56.106 44.274,56.106 C43.567,56.106 42.991,56.258 42.991,56.444 C42.991,56.63 43.567,56.782 44.274,56.782" id="Fill-125" fill="#5C3D30"></path>
                <path d="M35.767,58.329 C36.474,58.329 37.051,58.177 37.051,57.991 C37.051,57.805 36.474,57.653 35.767,57.653 C35.06,57.653 34.483,57.805 34.483,57.991 C34.483,58.177 35.06,58.329 35.767,58.329" id="Fill-126" fill="#5C3D30"></path>
                <path d="M33.528,57.745 C33.95,57.745 34.294,57.655 34.294,57.544 C34.294,57.432 33.95,57.342 33.528,57.342 C33.106,57.342 32.762,57.432 32.762,57.544 C32.762,57.655 33.106,57.745 33.528,57.745" id="Fill-127" fill="#5C3D30"></path>
                <path d="M63.161,58.469 C63.583,58.469 63.927,58.379 63.927,58.268 C63.927,58.157 63.583,58.066 63.161,58.066 C62.739,58.066 62.395,58.157 62.395,58.268 C62.395,58.379 62.739,58.469 63.161,58.469" id="Fill-128" fill="#5C3D30"></path>
                <path d="M60.771,58.352 C61.479,58.352 62.055,58.201 62.055,58.014 C62.055,57.828 61.479,57.677 60.771,57.677 C60.064,57.677 59.487,57.828 59.487,58.014 C59.487,58.201 60.064,58.352 60.771,58.352" id="Fill-129" fill="#5C3D30"></path>
                <path d="M43.535,43.929 C37.444,26.822 50.835,27.047 43.535,10.431 C57.539,25.64 42.096,30.098 43.535,43.929" id="Fill-130" fill="#DFCEAD"></path>
            </g>
        </g>
    </g>
</svg>