<?xml version="1.0" encoding="UTF-8"?>
<svg width="112px" height="134px" viewBox="0 0 112 134" version="1.1" xmlns="http://www.w3.org/2000/svg" xmlns:xlink="http://www.w3.org/1999/xlink">
    <title>Cup 5</title>
    <g id="Page-1" stroke="none" stroke-width="1" fill="none" fill-rule="evenodd">
        <g id="222629-P28RX6-279" transform="translate(-352.000000, -196.000000)">
            <g id="Cup-5" transform="translate(352.275000, 196.868000)">
                <path d="M38.595,132.713 C59.852,132.713 77.19,128.916 77.19,124.259 C77.19,119.603 59.852,115.805 38.595,115.805 C17.338,115.805 0,119.603 0,124.259 C0,128.916 17.338,132.713 38.595,132.713" id="Fill-131" fill="#A38B5B"></path>
                <path d="M70.952,122.852 C70.959,122.908 70.964,122.965 70.964,123.021 C70.964,125.825 62.326,128.098 51.672,128.098 C41.016,128.098 32.379,125.825 32.379,123.021 C32.379,122.965 32.384,122.909 32.391,122.853 C33.498,105.96 41.692,92.841 51.617,92.841 C61.542,92.841 69.843,105.96 70.952,122.852" id="Fill-132" fill="#E6E6E6"></path>
                <path d="M70.952,122.852 C70.959,122.908 70.964,122.965 70.964,123.021 C70.964,125.825 62.326,128.098 51.672,128.098 C45.263,128.098 39.585,127.275 36.077,126.01 C37.371,109.473 45.47,96.734 55.25,96.734 C58.202,96.734 61.011,97.895 63.529,99.97 C67.56,105.423 70.342,113.567 70.952,122.852" id="Fill-133" fill="#FFFFFF"></path>
                <path d="M52.3,91.723 C58.32,91.723 63.146,97.243 66.617,105.183 C58.514,113.312 46.522,111.488 37.1,104.336 C40.539,96.349 46.28,91.723 52.3,91.723" id="Fill-134" fill="#E6E6E6"></path>
                <path d="M94.63,87.535 C86.796,87.535 81.765,83.119 79.551,77.468 C78.716,75.337 78.298,73.044 78.298,70.767 C78.298,68.491 78.716,66.198 79.551,64.067 C81.765,58.415 86.796,53.999 94.63,53.999 L94.63,60.918 C90.107,60.918 87.228,63.402 85.983,66.58 C85.472,67.883 85.217,69.318 85.217,70.767 C85.217,72.217 85.472,73.651 85.983,74.954 C87.228,78.133 90.107,80.617 94.63,80.617 L94.63,87.535 Z M94.63,53.999 C102.464,53.999 107.494,58.415 109.709,64.067 C110.543,66.198 110.961,68.491 110.961,70.767 C110.961,73.044 110.543,75.337 109.709,77.468 C107.494,83.12 102.464,87.535 94.63,87.535 L94.63,80.617 C99.152,80.617 102.031,78.133 103.277,74.954 C103.787,73.651 104.042,72.218 104.042,70.767 C104.042,69.318 103.787,67.883 103.277,66.581 C102.031,63.402 99.153,60.918 94.63,60.918 L94.63,53.999 L94.63,53.999 Z" id="Fill-135" fill="#FFFFFF"></path>
                <path d="M82.953,82.856 C81.468,81.307 80.333,79.465 79.551,77.468 C78.716,75.337 78.299,73.044 78.299,70.768 C78.299,68.491 78.716,66.198 79.551,64.067 C81.199,59.86 84.408,56.339 89.171,54.813 C88.964,57.691 88.644,60.509 88.22,63.253 C87.22,64.181 86.474,65.327 85.983,66.58 C85.472,67.883 85.217,69.318 85.217,70.768 C85.217,72.035 85.412,73.291 85.803,74.458 C84.977,77.393 84.022,80.199 82.953,82.856" id="Fill-136" fill="#E6E6E6"></path>
                <path d="M51.571,109.667 C70.031,109.667 85.461,85.188 87.433,53.723 L15.909,53.723 C17.882,85.188 33.111,109.667 51.571,109.667" id="Fill-137" fill="#E6E6E6"></path>
                <path d="M54.037,109.518 C71.511,109.518 85.549,83.775 87.433,53.723 L20.84,53.723 C22.724,83.775 35.142,109.518 54.037,109.518" id="Fill-138" fill="#FFFFFF"></path>
                <path d="M51.672,63.134 C71.368,63.134 87.433,58.906 87.433,53.723 C87.433,48.539 71.368,44.312 51.672,44.312 C31.975,44.312 15.91,48.539 15.91,53.723 C15.91,58.906 31.975,63.134 51.672,63.134" id="Fill-139" fill="#FFFFFF"></path>
                <path d="M51.672,59.968 C68.718,59.968 82.622,57.163 82.622,53.723 C82.622,50.283 68.718,47.477 51.672,47.477 C34.625,47.477 20.721,50.283 20.721,53.723 C20.721,57.163 34.625,59.968 51.672,59.968" id="Fill-140" fill="#E6E6E6"></path>
                <path d="M51.671,59.968 C66.433,59.968 78.779,57.883 81.873,55.092 C78.779,52.302 66.433,50.217 51.671,50.217 C36.91,50.217 24.564,52.302 21.47,55.092 C24.564,57.883 36.91,59.968 51.671,59.968" id="Fill-141" fill="#5C3D30"></path>
                <path d="M51.671,59.968 C61.823,59.968 70.832,58.982 76.476,57.458 C73.759,53.87 67.09,55.864 64.347,57.327 C61.072,59.074 56.049,57.546 52.555,56.017 C49.061,54.488 43.493,56.454 40.654,57.436 C37.816,58.419 33.012,56.235 39.89,54.488 C46.766,52.742 42.205,50.517 33.563,51.397 C27.541,52.276 23.146,53.581 21.47,55.092 C24.564,57.883 36.91,59.968 51.671,59.968" id="Fill-142" fill="#A17E6F"></path>
                <path d="M37.671,52.741 C38.56,52.741 39.285,52.551 39.285,52.316 C39.285,52.082 38.56,51.892 37.671,51.892 C36.781,51.892 36.056,52.082 36.056,52.316 C36.056,52.551 36.781,52.741 37.671,52.741" id="Fill-143" fill="#5C3D30"></path>
                <path d="M35.275,53.501 C35.933,53.501 36.47,53.36 36.47,53.187 C36.47,53.014 35.933,52.873 35.275,52.873 C34.617,52.873 34.08,53.014 34.08,53.187 C34.08,53.36 34.617,53.501 35.275,53.501" id="Fill-144" fill="#5C3D30"></path>
                <path d="M26.728,55.256 C27.386,55.256 27.923,55.115 27.923,54.942 C27.923,54.768 27.386,54.627 26.728,54.627 C26.07,54.627 25.534,54.768 25.534,54.942 C25.534,55.115 26.07,55.256 26.728,55.256" id="Fill-145" fill="#5C3D30"></path>
                <path d="M50.243,58.321 C50.717,58.321 51.104,58.219 51.104,58.095 C51.104,57.97 50.717,57.868 50.243,57.868 C49.77,57.868 49.383,57.97 49.383,58.095 C49.383,58.219 49.77,58.321 50.243,58.321" id="Fill-146" fill="#5C3D30"></path>
                <path d="M48.471,57.214 C49.36,57.214 50.086,57.023 50.086,56.789 C50.086,56.555 49.36,56.364 48.471,56.364 C47.582,56.364 46.856,56.555 46.856,56.789 C46.856,57.023 47.582,57.214 48.471,57.214" id="Fill-147" fill="#5C3D30"></path>
                <path d="M46.039,58.013 C46.697,58.013 47.233,57.872 47.233,57.699 C47.233,57.526 46.697,57.385 46.039,57.385 C45.381,57.385 44.844,57.526 44.844,57.699 C44.844,57.872 45.381,58.013 46.039,58.013" id="Fill-148" fill="#5C3D30"></path>
                <path d="M73.119,56.782 C73.777,56.782 74.313,56.641 74.313,56.468 C74.313,56.295 73.777,56.153 73.119,56.153 C72.461,56.153 71.924,56.295 71.924,56.468 C71.924,56.641 72.461,56.782 73.119,56.782" id="Fill-149" fill="#5C3D30"></path>
                <path d="M69.319,58.598 C70.209,58.598 70.934,58.408 70.934,58.173 C70.934,57.939 70.209,57.748 69.319,57.748 C68.43,57.748 67.704,57.939 67.704,58.173 C67.704,58.408 68.43,58.598 69.319,58.598" id="Fill-150" fill="#5C3D30"></path>
                <path d="M69.938,57.09 C70.412,57.09 70.798,56.988 70.798,56.863 C70.798,56.739 70.412,56.637 69.938,56.637 C69.464,56.637 69.077,56.739 69.077,56.863 C69.077,56.988 69.464,57.09 69.938,57.09" id="Fill-151" fill="#5C3D30"></path>
                <path d="M37.395,33.899 C30.51,32.509 29.18,23.901 36.769,21.192 C45.596,18.042 53.563,29.18 52.454,40.146 C48.431,28.74 42.73,24.48 37.68,25.864 C33.395,27.038 36.379,32.676 37.395,33.899" id="Fill-152" fill="#DFCEAD"></path>
                <path d="M58.265,0 C48.559,14.607 63.714,24.371 55.061,40.77 C56.171,22.291 40.588,14.194 58.265,0" id="Fill-153" fill="#DFCEAD"></path>
            </g>
        </g>
    </g>
</svg>